<mxfile host="app.diagrams.net" agent="Mozilla/5.0 (X11; Linux x86_64; rv:142.0) Gecko/20100101 Firefox/142.0" version="28.2.5">
  <diagram id="Q_9XVu0A99vbWFm7OHyN" name="Page-1">
    <mxGraphModel dx="787" dy="353" grid="1" gridSize="10" guides="1" tooltips="1" connect="1" arrows="1" fold="1" page="1" pageScale="1" pageWidth="827" pageHeight="1169" background="none" math="0" shadow="0">
      <root>
        <mxCell id="0" />
        <mxCell id="1" parent="0" />
        <mxCell id="tVEeCfsAuI8Ik6jVbgPx-1" value="" style="rounded=0;whiteSpace=wrap;html=1;fontFamily=Ubuntu Sans;fontSource=https%3A%2F%2Ffonts.googleapis.com%2Fcss%3Ffamily%3DUbuntu%2BSans;" vertex="1" parent="1">
          <mxGeometry x="250" y="410" width="10" height="20" as="geometry" />
        </mxCell>
        <mxCell id="tVEeCfsAuI8Ik6jVbgPx-2" value="" style="rounded=0;whiteSpace=wrap;html=1;fontFamily=Ubuntu Sans;fontSource=https%3A%2F%2Ffonts.googleapis.com%2Fcss%3Ffamily%3DUbuntu%2BSans;" vertex="1" parent="1">
          <mxGeometry x="500" y="410" width="10" height="20" as="geometry" />
        </mxCell>
        <mxCell id="tVEeCfsAuI8Ik6jVbgPx-3" value="" style="ellipse;whiteSpace=wrap;html=1;aspect=fixed;fontFamily=Ubuntu Sans;fontSource=https%3A%2F%2Ffonts.googleapis.com%2Fcss%3Ffamily%3DUbuntu%2BSans;" vertex="1" parent="1">
          <mxGeometry x="200" y="400" width="40" height="40" as="geometry" />
        </mxCell>
        <mxCell id="tVEeCfsAuI8Ik6jVbgPx-4" value="" style="ellipse;whiteSpace=wrap;html=1;aspect=fixed;fontFamily=Ubuntu Sans;fontSource=https%3A%2F%2Ffonts.googleapis.com%2Fcss%3Ffamily%3DUbuntu%2BSans;" vertex="1" parent="1">
          <mxGeometry x="520" y="400" width="40" height="40" as="geometry" />
        </mxCell>
        <mxCell id="tVEeCfsAuI8Ik6jVbgPx-5" value="" style="rounded=1;whiteSpace=wrap;html=1;fontFamily=Ubuntu Sans;fontSource=https%3A%2F%2Ffonts.googleapis.com%2Fcss%3Ffamily%3DUbuntu%2BSans;" vertex="1" parent="1">
          <mxGeometry x="300" y="410" width="30" height="30" as="geometry" />
        </mxCell>
        <mxCell id="tVEeCfsAuI8Ik6jVbgPx-7" value="" style="endArrow=none;dashed=1;html=1;rounded=0;exitX=0.5;exitY=1;exitDx=0;exitDy=0;entryX=0.5;entryY=1;entryDx=0;entryDy=0;fontFamily=Ubuntu Sans;fontSource=https%3A%2F%2Ffonts.googleapis.com%2Fcss%3Ffamily%3DUbuntu%2BSans;" edge="1" parent="1" source="tVEeCfsAuI8Ik6jVbgPx-3" target="tVEeCfsAuI8Ik6jVbgPx-4">
          <mxGeometry width="50" height="50" relative="1" as="geometry">
            <mxPoint x="470" y="420" as="sourcePoint" />
            <mxPoint x="520" y="370" as="targetPoint" />
          </mxGeometry>
        </mxCell>
        <mxCell id="tVEeCfsAuI8Ik6jVbgPx-9" value="" style="endArrow=none;dashed=1;html=1;rounded=0;entryX=0.5;entryY=0;entryDx=0;entryDy=0;exitX=0.5;exitY=1;exitDx=0;exitDy=0;fontFamily=Ubuntu Sans;fontSource=https%3A%2F%2Ffonts.googleapis.com%2Fcss%3Ffamily%3DUbuntu%2BSans;" edge="1" parent="1" source="tVEeCfsAuI8Ik6jVbgPx-5" target="tVEeCfsAuI8Ik6jVbgPx-5">
          <mxGeometry width="50" height="50" relative="1" as="geometry">
            <mxPoint x="320" y="440" as="sourcePoint" />
            <mxPoint x="310" y="410" as="targetPoint" />
          </mxGeometry>
        </mxCell>
        <mxCell id="tVEeCfsAuI8Ik6jVbgPx-10" value="" style="endArrow=none;dashed=1;html=1;rounded=0;fontFamily=Ubuntu Sans;fontSource=https%3A%2F%2Ffonts.googleapis.com%2Fcss%3Ffamily%3DUbuntu%2BSans;" edge="1" parent="1">
          <mxGeometry width="50" height="50" relative="1" as="geometry">
            <mxPoint x="220" y="400" as="sourcePoint" />
            <mxPoint x="540" y="400" as="targetPoint" />
          </mxGeometry>
        </mxCell>
        <mxCell id="tVEeCfsAuI8Ik6jVbgPx-12" value="" style="endArrow=none;html=1;rounded=0;fontFamily=Ubuntu Sans;fontSource=https%3A%2F%2Ffonts.googleapis.com%2Fcss%3Ffamily%3DUbuntu%2BSans;" edge="1" parent="1">
          <mxGeometry width="50" height="50" relative="1" as="geometry">
            <mxPoint x="251" y="450" as="sourcePoint" />
            <mxPoint x="251" y="520" as="targetPoint" />
          </mxGeometry>
        </mxCell>
        <mxCell id="tVEeCfsAuI8Ik6jVbgPx-13" value="FLOOR (SWITCH)" style="text;html=1;align=center;verticalAlign=middle;resizable=0;points=[];autosize=1;strokeColor=none;fillColor=none;fontFamily=Ubuntu Sans;fontSource=https%3A%2F%2Ffonts.googleapis.com%2Fcss%3Ffamily%3DUbuntu%2BSans;" vertex="1" parent="1">
          <mxGeometry x="197" y="518" width="110" height="30" as="geometry" />
        </mxCell>
        <mxCell id="tVEeCfsAuI8Ik6jVbgPx-14" value="" style="endArrow=none;html=1;rounded=0;fontFamily=Ubuntu Sans;fontSource=https%3A%2F%2Ffonts.googleapis.com%2Fcss%3Ffamily%3DUbuntu%2BSans;" edge="1" parent="1">
          <mxGeometry width="50" height="50" relative="1" as="geometry">
            <mxPoint x="509" y="450" as="sourcePoint" />
            <mxPoint x="509" y="520" as="targetPoint" />
          </mxGeometry>
        </mxCell>
        <mxCell id="tVEeCfsAuI8Ik6jVbgPx-15" value="CEIL (SWITCH)" style="text;html=1;align=center;verticalAlign=middle;resizable=0;points=[];autosize=1;strokeColor=none;fillColor=none;fontFamily=Ubuntu Sans;fontSource=https%3A%2F%2Ffonts.googleapis.com%2Fcss%3Ffamily%3DUbuntu%2BSans;" vertex="1" parent="1">
          <mxGeometry x="460" y="518" width="100" height="30" as="geometry" />
        </mxCell>
        <mxCell id="tVEeCfsAuI8Ik6jVbgPx-16" value="" style="endArrow=none;html=1;rounded=0;fontFamily=Ubuntu Sans;fontSource=https%3A%2F%2Ffonts.googleapis.com%2Fcss%3Ffamily%3DUbuntu%2BSans;" edge="1" parent="1">
          <mxGeometry width="50" height="50" relative="1" as="geometry">
            <mxPoint x="220" y="350" as="sourcePoint" />
            <mxPoint x="220" y="390" as="targetPoint" />
          </mxGeometry>
        </mxCell>
        <mxCell id="tVEeCfsAuI8Ik6jVbgPx-17" value="ROTARY ENCODER" style="text;html=1;align=center;verticalAlign=middle;resizable=0;points=[];autosize=1;strokeColor=none;fillColor=none;fontFamily=Ubuntu Sans;fontSource=https%3A%2F%2Ffonts.googleapis.com%2Fcss%3Ffamily%3DUbuntu%2BSans;" vertex="1" parent="1">
          <mxGeometry x="156" y="318" width="130" height="30" as="geometry" />
        </mxCell>
        <mxCell id="tVEeCfsAuI8Ik6jVbgPx-18" value="" style="endArrow=none;html=1;rounded=0;fontFamily=Ubuntu Sans;fontSource=https%3A%2F%2Ffonts.googleapis.com%2Fcss%3Ffamily%3DUbuntu%2BSans;" edge="1" parent="1">
          <mxGeometry width="50" height="50" relative="1" as="geometry">
            <mxPoint x="539" y="350" as="sourcePoint" />
            <mxPoint x="539" y="390" as="targetPoint" />
          </mxGeometry>
        </mxCell>
        <mxCell id="tVEeCfsAuI8Ik6jVbgPx-19" value="STEPPER MOTOR (4-phase)" style="text;html=1;align=center;verticalAlign=middle;resizable=0;points=[];autosize=1;strokeColor=none;fillColor=none;fontFamily=Ubuntu Sans;fontSource=https%3A%2F%2Ffonts.googleapis.com%2Fcss%3Ffamily%3DUbuntu%2BSans;" vertex="1" parent="1">
          <mxGeometry x="455" y="318" width="170" height="30" as="geometry" />
        </mxCell>
        <mxCell id="tVEeCfsAuI8Ik6jVbgPx-20" value="" style="endArrow=none;html=1;rounded=0;fontFamily=Ubuntu Sans;fontSource=https%3A%2F%2Ffonts.googleapis.com%2Fcss%3Ffamily%3DUbuntu%2BSans;" edge="1" parent="1">
          <mxGeometry width="50" height="50" relative="1" as="geometry">
            <mxPoint x="315" y="450" as="sourcePoint" />
            <mxPoint x="315" y="470" as="targetPoint" />
          </mxGeometry>
        </mxCell>
        <mxCell id="tVEeCfsAuI8Ik6jVbgPx-21" value="&quot;DOOR&quot;" style="text;html=1;align=center;verticalAlign=middle;resizable=0;points=[];autosize=1;strokeColor=none;fillColor=none;fontFamily=Ubuntu Sans;fontSource=https%3A%2F%2Ffonts.googleapis.com%2Fcss%3Ffamily%3DUbuntu%2BSans;" vertex="1" parent="1">
          <mxGeometry x="281" y="468" width="70" height="30" as="geometry" />
        </mxCell>
        <mxCell id="tVEeCfsAuI8Ik6jVbgPx-22" value="" style="endArrow=none;html=1;rounded=0;fontFamily=Ubuntu Sans;fontSource=https%3A%2F%2Ffonts.googleapis.com%2Fcss%3Ffamily%3DUbuntu%2BSans;" edge="1" parent="1">
          <mxGeometry width="50" height="50" relative="1" as="geometry">
            <mxPoint x="399.8" y="360" as="sourcePoint" />
            <mxPoint x="399.8" y="390" as="targetPoint" />
          </mxGeometry>
        </mxCell>
        <mxCell id="tVEeCfsAuI8Ik6jVbgPx-23" value="BELT" style="text;html=1;align=center;verticalAlign=middle;resizable=0;points=[];autosize=1;strokeColor=none;fillColor=none;fontFamily=Ubuntu Sans;fontSource=https%3A%2F%2Ffonts.googleapis.com%2Fcss%3Ffamily%3DUbuntu%2BSans;" vertex="1" parent="1">
          <mxGeometry x="375" y="330" width="50" height="30" as="geometry" />
        </mxCell>
        <mxCell id="tVEeCfsAuI8Ik6jVbgPx-24" value="" style="rounded=1;whiteSpace=wrap;html=1;fontFamily=Ubuntu Sans;fontSource=https%3A%2F%2Ffonts.googleapis.com%2Fcss%3Ffamily%3DUbuntu%2BSans;" vertex="1" parent="1">
          <mxGeometry x="240" y="600" width="80" height="80" as="geometry" />
        </mxCell>
        <mxCell id="tVEeCfsAuI8Ik6jVbgPx-25" value="WIFI, MQTT" style="rounded=1;whiteSpace=wrap;html=1;fontFamily=Ubuntu Sans;fontSource=https%3A%2F%2Ffonts.googleapis.com%2Fcss%3Ffamily%3DUbuntu%2BSans;" vertex="1" parent="1">
          <mxGeometry x="440" y="600" width="80" height="80" as="geometry" />
        </mxCell>
        <mxCell id="tVEeCfsAuI8Ik6jVbgPx-26" value="LOCAL CONTROLS" style="text;html=1;align=center;verticalAlign=middle;resizable=0;points=[];autosize=1;strokeColor=none;fillColor=none;fontFamily=Ubuntu Sans;fontSource=https%3A%2F%2Ffonts.googleapis.com%2Fcss%3Ffamily%3DUbuntu%2BSans;" vertex="1" parent="1">
          <mxGeometry x="220" y="570" width="120" height="30" as="geometry" />
        </mxCell>
        <mxCell id="tVEeCfsAuI8Ik6jVbgPx-28" value="REMOTE CONTROLS" style="text;html=1;align=center;verticalAlign=middle;resizable=0;points=[];autosize=1;strokeColor=none;fillColor=none;fontFamily=Ubuntu Sans;fontSource=https%3A%2F%2Ffonts.googleapis.com%2Fcss%3Ffamily%3DUbuntu%2BSans;" vertex="1" parent="1">
          <mxGeometry x="415" y="570" width="130" height="30" as="geometry" />
        </mxCell>
        <mxCell id="tVEeCfsAuI8Ik6jVbgPx-29" value="A" style="ellipse;whiteSpace=wrap;html=1;aspect=fixed;fontFamily=Ubuntu Sans;fontSource=https%3A%2F%2Ffonts.googleapis.com%2Fcss%3Ffamily%3DUbuntu%2BSans;" vertex="1" parent="1">
          <mxGeometry x="246" y="645" width="30" height="30" as="geometry" />
        </mxCell>
        <mxCell id="tVEeCfsAuI8Ik6jVbgPx-30" value="B" style="ellipse;whiteSpace=wrap;html=1;aspect=fixed;fontFamily=Ubuntu Sans;fontSource=https%3A%2F%2Ffonts.googleapis.com%2Fcss%3Ffamily%3DUbuntu%2BSans;" vertex="1" parent="1">
          <mxGeometry x="284" y="645" width="30" height="30" as="geometry" />
        </mxCell>
        <mxCell id="tVEeCfsAuI8Ik6jVbgPx-31" value="1" style="rhombus;whiteSpace=wrap;html=1;fontFamily=Ubuntu Sans;fontSource=https%3A%2F%2Ffonts.googleapis.com%2Fcss%3Ffamily%3DUbuntu%2BSans;" vertex="1" parent="1">
          <mxGeometry x="245" y="610" width="20" height="20" as="geometry" />
        </mxCell>
        <mxCell id="tVEeCfsAuI8Ik6jVbgPx-32" value="2" style="rhombus;whiteSpace=wrap;html=1;fontFamily=Ubuntu Sans;fontSource=https%3A%2F%2Ffonts.googleapis.com%2Fcss%3Ffamily%3DUbuntu%2BSans;" vertex="1" parent="1">
          <mxGeometry x="270" y="610" width="20" height="20" as="geometry" />
        </mxCell>
        <mxCell id="tVEeCfsAuI8Ik6jVbgPx-33" value="3" style="rhombus;whiteSpace=wrap;html=1;fontFamily=Ubuntu Sans;fontSource=https%3A%2F%2Ffonts.googleapis.com%2Fcss%3Ffamily%3DUbuntu%2BSans;" vertex="1" parent="1">
          <mxGeometry x="294" y="610" width="20" height="20" as="geometry" />
        </mxCell>
        <mxCell id="tVEeCfsAuI8Ik6jVbgPx-34" value="" style="endArrow=none;html=1;rounded=0;fontFamily=Ubuntu Sans;fontSource=https%3A%2F%2Ffonts.googleapis.com%2Fcss%3Ffamily%3DUbuntu%2BSans;" edge="1" parent="1">
          <mxGeometry width="50" height="50" relative="1" as="geometry">
            <mxPoint x="200" y="620" as="sourcePoint" />
            <mxPoint x="230" y="620" as="targetPoint" />
          </mxGeometry>
        </mxCell>
        <mxCell id="tVEeCfsAuI8Ik6jVbgPx-35" value="LEDs" style="text;html=1;align=center;verticalAlign=middle;resizable=0;points=[];autosize=1;strokeColor=none;fillColor=none;fontFamily=Ubuntu Sans;fontSource=https%3A%2F%2Ffonts.googleapis.com%2Fcss%3Ffamily%3DUbuntu%2BSans;" vertex="1" parent="1">
          <mxGeometry x="156" y="605" width="50" height="30" as="geometry" />
        </mxCell>
        <mxCell id="tVEeCfsAuI8Ik6jVbgPx-36" value="" style="endArrow=none;html=1;rounded=0;fontFamily=Ubuntu Sans;fontSource=https%3A%2F%2Ffonts.googleapis.com%2Fcss%3Ffamily%3DUbuntu%2BSans;" edge="1" parent="1">
          <mxGeometry width="50" height="50" relative="1" as="geometry">
            <mxPoint x="200" y="660" as="sourcePoint" />
            <mxPoint x="230" y="660" as="targetPoint" />
          </mxGeometry>
        </mxCell>
        <mxCell id="tVEeCfsAuI8Ik6jVbgPx-37" value="Buttons" style="text;html=1;align=center;verticalAlign=middle;resizable=0;points=[];autosize=1;strokeColor=none;fillColor=none;fontFamily=Ubuntu Sans;fontSource=https%3A%2F%2Ffonts.googleapis.com%2Fcss%3Ffamily%3DUbuntu%2BSans;" vertex="1" parent="1">
          <mxGeometry x="136" y="645" width="70" height="30" as="geometry" />
        </mxCell>
      </root>
    </mxGraphModel>
  </diagram>
</mxfile>
